<svg version="1.1" id="Layer_1" xmlns="http://www.w3.org/2000/svg" xmlns:xlink="http://www.w3.org/1999/xlink" x="0px" y="0px" viewBox="0 0 512 512" style="enable-background:new 0 0 512 512;" xml:space="preserve">
<style type="text/css">
	.st0{fill:#9E9E9E;}
	.st1{fill:none;}
	.st2{enable-background:new    ;}
	.st3{fill:#FFFFFF;}
</style>
<g id="Layer_2">
<g id="Layer_2_background">
<g>
<g>
<circle class="st0" cx="256.1" cy="255.7" r="239.3" id="id_101" style="fill: rgb(207, 207, 207);"></circle>
</g>
</g>
</g>
</g>
<g id="Layer_3">
<g>
<rect x="121.1" y="134.1" class="st1" width="269.8" height="257.2" id="id_102"></rect>
</g>
<g class="st2">
<path class="st3" d="M320.4,296.9l27.3,8.4c-6,28.1-16.6,49.1-31.7,63C301,382.1,282.6,389,261,389c-19,0-35.3-4.6-48.8-13.9
			c-13.5-9.3-24.6-24.2-33.2-44.7c-8.6-20.5-12.9-44.7-12.9-72.7c0-27.6,4.3-50.9,12.9-70c8.6-19.1,20.3-33.5,35-43.3
			c14.7-9.7,31.1-14.6,49.3-14.6c19.8,0,36.9,6.2,51.1,18.5c14.3,12.3,24.2,30.4,29.9,54.3l-26.7,7.7c-9.1-34.7-27.4-52.1-54.9-52.1
			c-13.7,0-25.6,3.5-35.6,10.5c-10,7-18.1,17.9-24,32.8c-6,14.8-9,33.6-9,56.3c0,34.3,6,60.1,18.1,77.2
			c12.1,17.2,28.1,25.7,48.2,25.7c14.8,0,27.6-5.3,38.4-15.8C309.6,334.3,316.8,318.3,320.4,296.9z" id="id_103"></path>
</g>
</g>
</svg>